<?xml version="1.0" encoding="utf-8"?>
<!-- Generator: Adobe Illustrator 23.0.5, SVG Export Plug-In . SVG Version: 6.00 Build 0)  -->
<svg version="1.1" id="Capa_1" xmlns="http://www.w3.org/2000/svg" xmlns:xlink="http://www.w3.org/1999/xlink" x="0px" y="0px"
	 viewBox="0 0 1000 1000" style="enable-background:new 0 0 1000 1000;" xml:space="preserve">
<style type="text/css">
	.st0{fill:#FF0000;}
</style>
<g>
	<g>
		<path class="st0" d="M79.9,226.63c53.03-11.71,106.06-23.42,159.09-35.13c47.89,120.86,95.78,241.72,143.67,362.58
			c27.03-78.42,42.48-166.21,45.37-257.85c0.22-7.01,0.62-14.75,4.46-18.69c3.51-3.6,8.81-2.86,13.67-1.99
			c34.69,6.22,69.38,12.44,104.06,18.66c2.5,0.45,5.29,1.09,7.17,3.76c1.74,2.47,2.16,5.9,2.48,9.03
			c8.26,80.9,20.59,162.06,36.86,242.73c11.12,3.33,15.67-14.44,17.74-28.46c8.74-59.12,34.05-107.32,58.88-154.06
			c20.4-38.41,40.81-76.82,61.21-115.23c1.37-2.58,2.84-5.27,5.12-6.35c3.59-1.7,8.01,1.02,11.9,3.66
			c47.41,32.17,94.83,64.35,142.24,96.52c-13.99,21.58-27.8,43.37-41.43,65.37c-20.02,32.31-39.74,65.26-54.67,102.85
			c-8.62,21.7-15.63,44.91-25.75,65.18c-10.82,21.66-24.97,39.51-37.43,59.33c-19.42,30.89-34.68,66.46-52.11,99.62
			c-3.03,5.76-6.38,11.7-11.56,13.77c-4.66,1.86-10.09,0.3-15.26-1.32c-37.33-11.67-74.55-26.19-111.43-43.46
			c-5.3-2.48-10.77-5.16-15.23-10.25c-5.78-6.6-8.99-16.22-11.7-25.42c-9.43-31.95-16.14-64.75-19.94-97.43
			c-29.11,21.93-34.17,81.65-66.06,97.2c-13.63,6.65-29.85,3.78-45.43,0.83c-20.42-3.86-40.85-7.73-61.27-11.59
			c-7.26-1.37-14.87-2.93-21.38-8.85c-8.72-7.92-13.39-21.67-17.73-34.33C237.41,477.07,159.86,354,83.64,233.68"/>
		<g>
			<path class="st0" d="M83.49,239.65c53.03-11.71,106.06-23.42,159.09-35.13c-5.54-3.14-11.07-6.29-16.61-9.43
				c37.31,94.17,74.63,188.34,111.94,282.51c10.58,26.69,21.15,53.38,31.73,80.07c2.14,5.4,6.68,10.2,13.02,9.91
				c6.22-0.28,11.01-4.06,13.02-9.91c27.17-79.08,41.3-162.52,45.24-245.95c0.24-5.16,0.43-10.33,0.61-15.5
				c0.08-2.22,0.19-4.43,0.36-6.65c0.05-0.6,0.6-2.47,0.03-0.26c0.12-0.46,1.31-4.43,0.65-2.95c-0.08,0.19-0.16,0.38-0.24,0.57
				c0.8-1.31,0.7-1.26-0.29,0.15c-0.85,0.51-1.76,0.81-2.58,1.22c-1.39,0.7,1.18,0.07,1.77,0.07c3.65-0.02-1.34-0.45,0.72,0.08
				c5.39,1.39,11.14,1.99,16.62,2.98c22.41,4.02,44.83,8.04,67.24,12.06c5.34,0.96,10.67,1.91,16.01,2.87
				c2.23,0.4,4.47,0.92,6.71,1.26c2.41,0.37-0.78-0.38-1.44-1.02c-0.86-0.84-1.34-3.04-0.95-0.78c0.68,3.93-0.15-2.77,0.23,1.17
				c0.1,1.06,0.22,2.12,0.33,3.17c0.27,2.64,0.55,5.29,0.83,7.93c0.62,5.82,1.26,11.64,1.92,17.46c2.61,22.93,5.55,45.83,8.76,68.69
				c7.02,49.93,15.54,99.64,25.49,149.07c0.9,4.45,5.14,8.33,9.43,9.43c18.41,4.7,28.57-11.98,32.33-27.34
				c1.8-7.35,2.6-14.9,4-22.33c1.58-8.35,3.5-16.62,5.75-24.81c2.19-7.97,4.68-15.86,7.43-23.66c1.32-3.73,2.69-7.44,4.12-11.13
				c0.75-1.94,1.52-3.88,2.29-5.81c0.35-0.86,0.69-1.71,1.04-2.56c-0.01,0.02,1.63-3.9,0.77-1.87
				c6.19-14.64,13.17-28.94,20.42-43.08c16.25-31.68,33.28-62.97,49.98-94.41c8.79-16.55,18.04-32.94,26.48-49.66
				c0.11-0.17,0.22-0.35,0.33-0.52c-0.65,1.28-1.78,1.94-3.4,1.98c-0.92,0.36-1.84,0.72-2.77,1.07c-0.74,0.04-1.4-0.15-1.99-0.58
				c0.48-0.33,4.27,2.54,4.84,2.92c4.05,2.7,8.05,5.46,12.08,8.2c8.05,5.46,16.1,10.93,24.15,16.39
				c35.34,23.98,70.67,47.96,106.01,71.94c-1.61-6.16-3.23-12.31-4.84-18.47c-26.37,40.71-53.37,81.56-75.9,124.56
				c-11.27,21.5-20.67,43.76-28.96,66.56c-8.3,22.81-15.63,42.13-28.73,62.88c-12.22,19.36-25.77,37.71-36.89,57.76
				c-11.7,21.09-21.89,42.96-32.68,64.51c-2.47,4.93-4.97,9.86-7.53,14.75c-1.24,2.36-2.46,4.74-3.89,7
				c-0.21,0.32-2.7,3.3-0.82,1.29c-0.52,0.59-1.07,1.15-1.65,1.68c1.25-0.92,1.24-0.97-0.04-0.17c0.69-0.24,1.19-0.34,1.84-0.55
				c-0.46,0-0.92,0-1.38,0.01c1.25,0.29,1.04,0.26-0.64-0.09c-2.93-0.65-5.79-1.6-8.65-2.51c-5.91-1.87-11.8-3.81-17.67-5.81
				c-23.38-7.97-46.87-17.13-68.63-26.74c-6.35-2.8-12.67-5.66-18.95-8.62c-2.7-1.27-5.4-2.56-7.93-4.15
				c-0.08-0.05-3.39-2.58-1.57-1.03c-1.37-1.17-2.71-2.49-3.8-3.93c1.34,1.77,0.05-0.07-0.12-0.38c-0.83-1.55-1.78-3.01-2.56-4.59
				c-0.02-0.04-1.74-4.06-0.81-1.74c-0.68-1.71-1.29-3.45-1.87-5.19c-2.07-6.19-3.8-12.51-5.51-18.81
				c-3.74-13.76-6.98-27.66-9.71-41.66c-1.31-6.72-2.5-13.45-3.57-20.21c-1.2-7.59-1.89-12.67-2.72-19.77
				c-0.57-4.89-2.21-9.04-6.69-11.66c-3.76-2.2-9.93-2.84-13.63,0c-14.86,11.42-23.75,27.3-31.49,44.05
				c-3.81,8.25-7.38,16.6-11.44,24.73c-1.9,3.81-3.91,7.57-6.13,11.2c-0.98,1.61-2,3.2-3.08,4.75c-0.51,0.74-1.17,2.11-1.89,2.62
				c-0.04,0.03,1.73-2.07,0.71-0.94c-0.4,0.44-0.76,0.93-1.15,1.38c-1.14,1.34-2.34,2.63-3.61,3.86c-0.72,0.7-1.47,1.39-2.23,2.04
				c-0.32,0.28-0.67,0.53-0.99,0.82c-1.25,1.13,2.15-1.4,0.7-0.56c-1.47,0.84-2.85,1.84-4.32,2.68c-0.22,0.13-1.81,0.95-0.78,0.45
				c1.1-0.53-0.89,0.34-0.91,0.35c-1.5,0.52-3.01,0.96-4.55,1.3c-0.66,0.15-1.33,0.28-1.99,0.4c0.28-0.05,1.84-0.2,0.22-0.02
				c-1.59,0.17-3.2,0.26-4.8,0.29c-3.05,0.06-6.09-0.12-9.13-0.41c-0.71-0.07-1.42-0.15-2.13-0.23c0.31,0.04,1.63,0.23,0.03,0.01
				c-1.67-0.23-3.33-0.51-5-0.8c-3.16-0.54-6.32-1.15-9.47-1.75c-13.62-2.58-27.23-5.15-40.85-7.73c-6.83-1.29-13.68-2.51-20.5-3.89
				c-2.47-0.5-4.93-1.06-7.33-1.84c-0.66-0.22-3.35-1.49-1.57-0.56c-0.59-0.31-1.18-0.61-1.76-0.94c-0.48-0.28-2.59-1.63-1.24-0.62
				c-1.01-0.75-1.92-1.7-2.79-2.61c-0.52-0.55-2.25-2.76-0.97-1.01c-1.74-2.4-3.24-4.98-4.58-7.62c-0.6-1.18-1.16-2.38-1.7-3.58
				c-0.01-0.02-0.87-2.04-0.38-0.85c0.5,1.19-0.34-0.87-0.34-0.89c-1.14-2.96-2.23-5.94-3.27-8.94
				c-4.21-12.12-8.46-24.22-13.03-36.21c-9.4-24.68-19.7-49.03-30.72-73.02c-21.36-46.53-45.57-91.69-71.26-135.96
				c-25.44-43.83-52.33-86.79-79.42-129.62c-3.35-5.29-6.7-10.58-10.05-15.87c-3.78-5.96-12.19-8.89-18.47-4.84
				c-5.97,3.85-8.89,12.09-4.84,18.47c27.73,43.77,55.42,87.59,81.72,132.24c26.45,44.9,51.49,90.66,73.71,137.82
				c11.47,24.35,21.08,46.49,30.61,71c4.79,12.32,9.35,24.72,13.66,37.22c4.03,11.67,7.76,24.16,15.05,34.29
				c4.25,5.9,9.32,11.17,15.85,14.56c5.84,3.02,11.96,4.67,18.37,5.89c13.87,2.65,27.75,5.25,41.63,7.87
				c25.18,4.76,55.61,14.42,79.17-0.55c15.74-10,24.98-26.92,32.64-43.37c3.85-8.26,7.42-16.64,11.44-24.81
				c1.98-4.03,4.06-8.01,6.36-11.87c1.07-1.79,2.18-3.56,3.35-5.28c0.53-0.78,1.09-1.54,1.63-2.31c1.3-1.87-1.53,1.78,0.44-0.57
				c1.26-1.5,2.55-2.98,3.93-4.38c0.73-0.74,1.48-1.45,2.25-2.14c0.65-0.58,3.28-2.68,0.32-0.4c-6.77-3.89-13.54-7.77-20.31-11.66
				c3.15,26.83,7.88,53.43,14.54,79.61c3.23,12.71,6.48,25.62,11.68,37.7c5.11,11.84,13.44,20.72,25.06,26.38
				c23.64,11.52,48.16,21.56,72.79,30.76c12.16,4.54,24.42,8.82,36.77,12.81c6.38,2.06,12.75,4.36,19.49,4.87
				c7.86,0.6,15.36-2.33,20.9-7.9c8.21-8.25,12.83-20.47,17.94-30.72c5.63-11.28,11.12-22.63,16.75-33.91
				c11.05-22.14,22.97-43.58,36.86-64.07c6.53-9.63,13.16-19.19,19.13-29.18c6.68-11.19,12.14-22.92,17.05-34.98
				c4.72-11.6,8.81-23.44,13.16-35.18c4.49-12.14,8.37-21.66,13.71-33.04c11.44-24.38,25.02-47.65,39.1-70.58
				c15.26-24.86,30.88-49.5,46.74-73.98c4.16-6.42,0.97-14.53-4.84-18.47c-31.76-21.55-63.52-43.1-95.27-64.65
				c-15.65-10.62-31.21-21.4-46.97-31.87c-9.7-6.45-22.03-9.05-30.8,0.59c-3.17,3.48-5.15,7.81-7.34,11.92
				c-2.39,4.5-4.79,9.01-7.18,13.51c-17.65,33.23-35.31,66.45-52.95,99.68c-15.34,28.9-30.27,58.07-41.61,88.82
				c-6.62,17.94-11.89,36.38-15.35,55.2c-1.51,8.23-2.31,16.64-4.76,24.67c-0.21,0.7-0.44,1.39-0.67,2.08
				c-0.14,0.4-1.34,3.11-0.46,1.31c0.94-1.92-0.52,0.93-0.6,1.07c-0.37,0.67-0.86,1.28-1.2,1.96c-0.85,1.68,2.08-2.49,0.23-0.45
				c-1.57,1.73,1.87-1.31,0.59-0.5c-0.57,0.36,2.98-0.87,3.66-0.88c-2.52,0.04,3.21,0.82,0.37,0.1c3.14,3.14,6.29,6.29,9.43,9.43
				c-9.32-46.28-17.39-92.81-24.14-139.54c-3.27-22.64-6.09-44.43-8.79-67.87c-1.29-11.17-2.32-22.36-3.65-33.52
				c-0.78-6.51-2.19-12.86-6.98-17.7c-4.32-4.36-9.76-5.85-15.58-6.89c-23.48-4.21-46.96-8.42-70.44-12.63
				c-12.1-2.17-24.25-4.91-36.46-6.34c-13.34-1.57-24.5,6.12-27.57,19.27c-2.54,10.91-1.8,22.76-2.36,33.89
				c-0.57,11.27-1.33,22.52-2.29,33.76c-1.9,22.26-4.3,42.23-7.64,63.24c-7.48,47.08-18.7,93.58-34.2,138.68c8.68,0,17.36,0,26.04,0
				c-37.31-94.17-74.63-188.34-111.94-282.51c-10.58-26.69-21.15-53.38-31.73-80.07c-2.8-7.06-8.81-11.15-16.61-9.43
				c-53.03,11.71-106.06,23.42-159.09,35.13c-6.9,1.52-11.59,9.92-9.43,16.61C69.23,237.48,76.09,241.29,83.49,239.65L83.49,239.65z
				"/>
		</g>
	</g>
	<g>
		<g>
			<path class="st0" d="M109.78,295.36c53.03-11.71,106.06-23.42,159.09-35.13c-5.54-3.14-11.07-6.29-16.61-9.43
				c37.31,94.17,74.63,188.34,111.94,282.51c10.58,26.69,21.15,53.38,31.73,80.07c2.14,5.39,6.68,10.2,13.02,9.91
				c6.22-0.28,11.01-4.06,13.02-9.91c27.17-79.08,41.3-162.52,45.24-245.95c0.24-5.16,0.43-10.33,0.61-15.5
				c0.08-2.22,0.19-4.43,0.36-6.65c0.05-0.6,0.6-2.47,0.03-0.26c0.12-0.46,1.31-4.43,0.65-2.95c-0.08,0.19-0.16,0.38-0.24,0.57
				c0.8-1.31,0.7-1.26-0.29,0.15c-0.85,0.51-1.76,0.81-2.58,1.22c-1.39,0.7,1.18,0.07,1.77,0.07c3.66-0.02-1.34-0.45,0.72,0.08
				c5.39,1.39,11.14,1.99,16.62,2.98c22.41,4.02,44.83,8.04,67.24,12.06c5.34,0.96,10.67,1.91,16.01,2.87
				c2.23,0.4,4.47,0.92,6.71,1.26c2.41,0.37-0.78-0.38-1.44-1.02c-0.86-0.84-1.34-3.04-0.95-0.78c0.68,3.93-0.15-2.77,0.23,1.17
				c0.1,1.06,0.22,2.12,0.33,3.17c0.27,2.64,0.55,5.29,0.83,7.93c0.62,5.82,1.26,11.64,1.92,17.46c2.61,22.93,5.55,45.83,8.76,68.69
				c7.02,49.93,15.54,99.64,25.49,149.07c0.9,4.45,5.14,8.33,9.43,9.43c18.41,4.7,28.57-11.98,32.33-27.34
				c1.8-7.35,2.6-14.9,4-22.33c1.58-8.35,3.5-16.62,5.75-24.81c2.19-7.97,4.68-15.86,7.43-23.66c1.32-3.73,2.69-7.44,4.12-11.13
				c0.75-1.94,1.52-3.88,2.29-5.81c0.35-0.86,0.69-1.71,1.04-2.56c-0.01,0.02,1.63-3.9,0.77-1.87
				c6.19-14.64,13.17-28.94,20.42-43.08c16.25-31.68,33.28-62.97,49.98-94.41c8.79-16.55,18.04-32.94,26.48-49.66
				c0.11-0.17,0.22-0.35,0.33-0.52c-0.65,1.28-1.78,1.94-3.4,1.98c-0.92,0.36-1.84,0.72-2.77,1.07c-0.74,0.04-1.4-0.15-1.99-0.58
				c0.48-0.33,4.27,2.54,4.84,2.92c4.05,2.7,8.05,5.46,12.08,8.2c8.05,5.46,16.1,10.93,24.15,16.39
				c35.34,23.98,70.67,47.96,106.01,71.94c-1.61-6.16-3.23-12.31-4.84-18.47c-26.37,40.71-53.37,81.56-75.9,124.56
				c-11.27,21.5-20.67,43.76-28.96,66.56c-8.3,22.81-15.63,42.13-28.73,62.88c-12.22,19.36-25.77,37.71-36.89,57.76
				c-11.7,21.09-21.89,42.96-32.68,64.51c-2.47,4.93-4.97,9.86-7.53,14.75c-1.24,2.36-2.46,4.74-3.89,7
				c-0.21,0.32-2.7,3.3-0.82,1.29c-0.52,0.59-1.07,1.15-1.65,1.68c1.25-0.92,1.24-0.97-0.04-0.17c0.69-0.24,1.19-0.34,1.84-0.55
				c-0.46,0-0.92,0-1.38,0.01c1.25,0.28,1.04,0.26-0.64-0.09c-2.93-0.65-5.79-1.6-8.65-2.51c-5.91-1.87-11.8-3.81-17.67-5.81
				c-23.38-7.97-46.87-17.13-68.63-26.74c-6.35-2.8-12.67-5.66-18.95-8.62c-2.7-1.27-5.4-2.56-7.93-4.15
				c-0.08-0.05-3.39-2.58-1.57-1.03c-1.37-1.17-2.71-2.49-3.8-3.93c1.34,1.77,0.05-0.07-0.12-0.38c-0.83-1.55-1.78-3.01-2.56-4.59
				c-0.02-0.04-1.74-4.06-0.81-1.74c-0.68-1.71-1.29-3.45-1.87-5.19c-2.07-6.19-3.8-12.51-5.51-18.81
				c-3.74-13.76-6.98-27.66-9.71-41.66c-1.31-6.72-2.5-13.45-3.57-20.21c-1.2-7.59-1.89-12.67-2.72-19.77
				c-0.57-4.89-2.21-9.04-6.69-11.66c-3.76-2.2-9.93-2.84-13.63,0c-14.86,11.42-23.75,27.3-31.49,44.05
				c-3.81,8.25-7.38,16.6-11.44,24.73c-1.9,3.81-3.91,7.57-6.13,11.2c-0.98,1.61-2,3.2-3.08,4.75c-0.51,0.74-1.17,2.1-1.89,2.62
				c-0.04,0.03,1.73-2.07,0.71-0.94c-0.4,0.44-0.76,0.93-1.15,1.38c-1.14,1.34-2.34,2.63-3.61,3.86c-0.72,0.7-1.47,1.39-2.23,2.04
				c-0.32,0.28-0.67,0.53-0.99,0.82c-1.25,1.13,2.15-1.4,0.7-0.56c-1.47,0.84-2.85,1.84-4.32,2.68c-0.22,0.13-1.81,0.95-0.78,0.45
				c1.1-0.53-0.89,0.34-0.91,0.35c-1.5,0.52-3.01,0.96-4.55,1.3c-0.66,0.15-1.33,0.28-1.99,0.4c0.28-0.05,1.84-0.2,0.22-0.02
				c-1.59,0.17-3.2,0.26-4.8,0.29c-3.05,0.06-6.09-0.12-9.13-0.41c-0.71-0.07-1.42-0.15-2.13-0.23c0.31,0.04,1.63,0.23,0.03,0.01
				c-1.67-0.23-3.33-0.51-5-0.8c-3.16-0.54-6.32-1.15-9.47-1.75c-13.62-2.58-27.23-5.15-40.85-7.73c-6.83-1.29-13.68-2.51-20.5-3.89
				c-2.47-0.5-4.93-1.06-7.33-1.84c-0.66-0.22-3.35-1.49-1.57-0.56c-0.59-0.31-1.18-0.61-1.76-0.94c-0.48-0.28-2.59-1.63-1.24-0.62
				c-1.01-0.75-1.92-1.7-2.79-2.61c-0.52-0.55-2.25-2.76-0.97-1.01c-1.74-2.4-3.24-4.98-4.58-7.62c-0.6-1.18-1.16-2.38-1.7-3.58
				c-0.01-0.02-0.87-2.04-0.38-0.85c0.5,1.19-0.34-0.87-0.34-0.89c-1.14-2.96-2.23-5.94-3.27-8.94
				c-4.21-12.12-8.46-24.22-13.03-36.21c-9.4-24.68-19.7-49.03-30.72-73.02c-21.36-46.53-45.57-91.69-71.26-135.96
				c-25.44-43.83-52.33-86.79-79.42-129.62c-3.35-5.29-6.7-10.58-10.05-15.87c-3.78-5.96-12.19-8.89-18.47-4.84
				c-5.97,3.85-8.89,12.09-4.84,18.47C126,339.98,153.69,383.79,180,428.45c26.45,44.9,51.49,90.66,73.71,137.82
				c11.47,24.35,21.08,46.49,30.61,71c4.79,12.32,9.35,24.72,13.66,37.22c4.03,11.67,7.76,24.16,15.05,34.29
				c4.25,5.9,9.32,11.17,15.85,14.56c5.84,3.02,11.96,4.67,18.37,5.89c13.87,2.65,27.75,5.25,41.63,7.87
				c25.18,4.76,55.61,14.42,79.17-0.55c15.74-10,24.98-26.92,32.64-43.37c3.85-8.26,7.42-16.64,11.44-24.81
				c1.98-4.03,4.06-8.01,6.36-11.87c1.07-1.79,2.18-3.56,3.35-5.28c0.53-0.78,1.09-1.54,1.63-2.31c1.3-1.87-1.53,1.78,0.44-0.57
				c1.26-1.5,2.55-2.98,3.93-4.38c0.73-0.74,1.48-1.45,2.26-2.14c0.65-0.58,3.28-2.68,0.32-0.4c-6.77-3.89-13.54-7.77-20.31-11.66
				c3.15,26.83,7.88,53.43,14.54,79.61c3.23,12.71,6.48,25.62,11.68,37.7c5.11,11.84,13.44,20.72,25.06,26.38
				c23.64,11.52,48.16,21.56,72.79,30.76c12.16,4.54,24.42,8.82,36.77,12.81c6.38,2.06,12.75,4.36,19.49,4.87
				c7.86,0.6,15.36-2.33,20.9-7.9c8.21-8.25,12.83-20.47,17.94-30.72c5.63-11.28,11.12-22.63,16.75-33.91
				c11.05-22.14,22.97-43.58,36.86-64.07c6.53-9.63,13.16-19.19,19.13-29.18c6.68-11.19,12.14-22.92,17.05-34.98
				c4.72-11.6,8.81-23.44,13.16-35.18c4.49-12.14,8.37-21.66,13.71-33.04c11.44-24.38,25.02-47.65,39.1-70.58
				c15.26-24.86,30.88-49.5,46.74-73.98c4.16-6.42,0.97-14.53-4.84-18.47c-31.76-21.55-63.52-43.1-95.27-64.65
				c-15.65-10.62-31.21-21.4-46.97-31.87c-9.7-6.45-22.03-9.05-30.8,0.59c-3.17,3.48-5.15,7.81-7.34,11.92
				c-2.39,4.5-4.79,9.01-7.18,13.51c-17.65,33.23-35.31,66.45-52.95,99.68c-15.34,28.9-30.27,58.07-41.61,88.82
				c-6.62,17.94-11.89,36.38-15.35,55.2c-1.51,8.23-2.31,16.64-4.76,24.67c-0.21,0.7-0.44,1.39-0.67,2.08
				c-0.14,0.4-1.34,3.11-0.46,1.31c0.94-1.92-0.52,0.93-0.6,1.07c-0.37,0.67-0.86,1.28-1.2,1.96c-0.85,1.68,2.08-2.49,0.23-0.45
				c-1.57,1.73,1.87-1.31,0.59-0.5c-0.57,0.36,2.98-0.87,3.66-0.88c-2.52,0.04,3.21,0.82,0.37,0.1c3.14,3.14,6.29,6.29,9.43,9.43
				c-9.32-46.28-17.39-92.81-24.14-139.54c-3.27-22.64-6.09-44.43-8.79-67.87c-1.29-11.17-2.32-22.36-3.65-33.52
				c-0.78-6.51-2.19-12.86-6.98-17.7c-4.32-4.36-9.76-5.85-15.58-6.89c-23.48-4.21-46.96-8.42-70.44-12.63
				c-12.1-2.17-24.25-4.91-36.46-6.34c-13.34-1.57-24.5,6.12-27.57,19.27c-2.54,10.91-1.8,22.76-2.36,33.89
				c-0.57,11.27-1.33,22.52-2.29,33.76c-1.9,22.26-4.3,42.23-7.64,63.24c-7.48,47.08-18.7,93.58-34.2,138.68c8.68,0,17.36,0,26.04,0
				c-37.31-94.17-74.63-188.34-111.94-282.51c-10.58-26.69-21.15-53.38-31.73-80.07c-2.8-7.06-8.81-11.15-16.61-9.43
				c-53.03,11.71-106.06,23.42-159.09,35.13c-6.9,1.52-11.59,9.92-9.43,16.61C95.52,293.19,102.38,297,109.78,295.36L109.78,295.36z
				"/>
		</g>
	</g>
</g>
</svg>
